<mxfile host="app.diagrams.net" agent="Mozilla/5.0 (Windows NT 10.0; Win64; x64) AppleWebKit/537.36 (KHTML, like Gecko) Chrome/129.0.0.0 Safari/537.36" version="24.7.16">
  <diagram name="Page-1" id="KJnaPAedMKMjM2-pCguB">
    <mxGraphModel dx="838" dy="2076" grid="1" gridSize="10" guides="1" tooltips="1" connect="1" arrows="1" fold="1" page="1" pageScale="1" pageWidth="827" pageHeight="1169" math="0" shadow="0">
      <root>
        <mxCell id="0" />
        <mxCell id="1" parent="0" />
        <mxCell id="DP9txqHSI3UWX8q9H3Ye-7" value="" style="edgeStyle=orthogonalEdgeStyle;rounded=0;sketch=1;hachureGap=4;jiggle=2;curveFitting=1;orthogonalLoop=1;jettySize=auto;html=1;fontFamily=Architects Daughter;fontSource=https%3A%2F%2Ffonts.googleapis.com%2Fcss%3Ffamily%3DArchitects%2BDaughter;" edge="1" parent="1" source="DP9txqHSI3UWX8q9H3Ye-1" target="DP9txqHSI3UWX8q9H3Ye-6">
          <mxGeometry relative="1" as="geometry" />
        </mxCell>
        <mxCell id="DP9txqHSI3UWX8q9H3Ye-1" value="&quot;ATTACK&quot;" style="rounded=0;whiteSpace=wrap;html=1;sketch=1;hachureGap=4;jiggle=2;curveFitting=1;fontFamily=Architects Daughter;fontSource=https%3A%2F%2Ffonts.googleapis.com%2Fcss%3Ffamily%3DArchitects%2BDaughter;" vertex="1" parent="1">
          <mxGeometry x="310" y="10" width="120" height="60" as="geometry" />
        </mxCell>
        <mxCell id="DP9txqHSI3UWX8q9H3Ye-9" value="" style="edgeStyle=orthogonalEdgeStyle;rounded=0;sketch=1;hachureGap=4;jiggle=2;curveFitting=1;orthogonalLoop=1;jettySize=auto;html=1;fontFamily=Architects Daughter;fontSource=https%3A%2F%2Ffonts.googleapis.com%2Fcss%3Ffamily%3DArchitects%2BDaughter;" edge="1" parent="1" source="DP9txqHSI3UWX8q9H3Ye-24" target="DP9txqHSI3UWX8q9H3Ye-8">
          <mxGeometry relative="1" as="geometry" />
        </mxCell>
        <mxCell id="DP9txqHSI3UWX8q9H3Ye-6" value="ENEMY TO ATTACK?" style="rounded=0;whiteSpace=wrap;html=1;sketch=1;hachureGap=4;jiggle=2;curveFitting=1;fontFamily=Architects Daughter;fontSource=https%3A%2F%2Ffonts.googleapis.com%2Fcss%3Ffamily%3DArchitects%2BDaughter;" vertex="1" parent="1">
          <mxGeometry x="310" y="150" width="120" height="60" as="geometry" />
        </mxCell>
        <mxCell id="DP9txqHSI3UWX8q9H3Ye-16" value="" style="edgeStyle=orthogonalEdgeStyle;rounded=0;sketch=1;hachureGap=4;jiggle=2;curveFitting=1;orthogonalLoop=1;jettySize=auto;html=1;fontFamily=Architects Daughter;fontSource=https%3A%2F%2Ffonts.googleapis.com%2Fcss%3Ffamily%3DArchitects%2BDaughter;" edge="1" parent="1" source="DP9txqHSI3UWX8q9H3Ye-8" target="DP9txqHSI3UWX8q9H3Ye-15">
          <mxGeometry relative="1" as="geometry" />
        </mxCell>
        <mxCell id="DP9txqHSI3UWX8q9H3Ye-18" value="" style="edgeStyle=orthogonalEdgeStyle;rounded=0;sketch=1;hachureGap=4;jiggle=2;curveFitting=1;orthogonalLoop=1;jettySize=auto;html=1;fontFamily=Architects Daughter;fontSource=https%3A%2F%2Ffonts.googleapis.com%2Fcss%3Ffamily%3DArchitects%2BDaughter;" edge="1" parent="1" source="DP9txqHSI3UWX8q9H3Ye-8" target="DP9txqHSI3UWX8q9H3Ye-17">
          <mxGeometry relative="1" as="geometry" />
        </mxCell>
        <mxCell id="DP9txqHSI3UWX8q9H3Ye-8" value="" style="rhombus;whiteSpace=wrap;html=1;fontFamily=Architects Daughter;rounded=0;sketch=1;hachureGap=4;jiggle=2;curveFitting=1;fontSource=https%3A%2F%2Ffonts.googleapis.com%2Fcss%3Ffamily%3DArchitects%2BDaughter;" vertex="1" parent="1">
          <mxGeometry x="330" y="640" width="80" height="80" as="geometry" />
        </mxCell>
        <mxCell id="DP9txqHSI3UWX8q9H3Ye-13" value="" style="ellipse;html=1;shape=startState;fillColor=#000000;strokeColor=#ff0000;sketch=1;hachureGap=4;jiggle=2;curveFitting=1;fontFamily=Architects Daughter;fontSource=https%3A%2F%2Ffonts.googleapis.com%2Fcss%3Ffamily%3DArchitects%2BDaughter;" vertex="1" parent="1">
          <mxGeometry x="355" y="-80" width="30" height="30" as="geometry" />
        </mxCell>
        <mxCell id="DP9txqHSI3UWX8q9H3Ye-14" value="" style="edgeStyle=orthogonalEdgeStyle;html=1;verticalAlign=bottom;endArrow=open;endSize=8;strokeColor=#ff0000;rounded=0;sketch=1;hachureGap=4;jiggle=2;curveFitting=1;fontFamily=Architects Daughter;fontSource=https%3A%2F%2Ffonts.googleapis.com%2Fcss%3Ffamily%3DArchitects%2BDaughter;" edge="1" source="DP9txqHSI3UWX8q9H3Ye-13" parent="1">
          <mxGeometry relative="1" as="geometry">
            <mxPoint x="370" y="10" as="targetPoint" />
          </mxGeometry>
        </mxCell>
        <mxCell id="DP9txqHSI3UWX8q9H3Ye-42" value="" style="edgeStyle=orthogonalEdgeStyle;rounded=0;sketch=1;hachureGap=4;jiggle=2;curveFitting=1;orthogonalLoop=1;jettySize=auto;html=1;fontFamily=Architects Daughter;fontSource=https%3A%2F%2Ffonts.googleapis.com%2Fcss%3Ffamily%3DArchitects%2BDaughter;" edge="1" parent="1" source="DP9txqHSI3UWX8q9H3Ye-15" target="DP9txqHSI3UWX8q9H3Ye-41">
          <mxGeometry relative="1" as="geometry" />
        </mxCell>
        <mxCell id="DP9txqHSI3UWX8q9H3Ye-15" value="NO" style="whiteSpace=wrap;html=1;fontFamily=Architects Daughter;rounded=0;sketch=1;hachureGap=4;jiggle=2;curveFitting=1;fontSource=https%3A%2F%2Ffonts.googleapis.com%2Fcss%3Ffamily%3DArchitects%2BDaughter;" vertex="1" parent="1">
          <mxGeometry x="150" y="650" width="120" height="60" as="geometry" />
        </mxCell>
        <mxCell id="DP9txqHSI3UWX8q9H3Ye-17" value="Yes" style="whiteSpace=wrap;html=1;fontFamily=Architects Daughter;rounded=0;sketch=1;hachureGap=4;jiggle=2;curveFitting=1;fontSource=https%3A%2F%2Ffonts.googleapis.com%2Fcss%3Ffamily%3DArchitects%2BDaughter;" vertex="1" parent="1">
          <mxGeometry x="470" y="650" width="120" height="60" as="geometry" />
        </mxCell>
        <mxCell id="DP9txqHSI3UWX8q9H3Ye-23" value="" style="edgeStyle=orthogonalEdgeStyle;rounded=0;sketch=1;hachureGap=4;jiggle=2;curveFitting=1;orthogonalLoop=1;jettySize=auto;html=1;fontFamily=Architects Daughter;fontSource=https%3A%2F%2Ffonts.googleapis.com%2Fcss%3Ffamily%3DArchitects%2BDaughter;" edge="1" parent="1" source="DP9txqHSI3UWX8q9H3Ye-20" target="DP9txqHSI3UWX8q9H3Ye-22">
          <mxGeometry relative="1" as="geometry" />
        </mxCell>
        <mxCell id="DP9txqHSI3UWX8q9H3Ye-20" value="ENEMY IS ATTACKED" style="whiteSpace=wrap;html=1;fontFamily=Architects Daughter;rounded=0;sketch=1;hachureGap=4;jiggle=2;curveFitting=1;fontSource=https%3A%2F%2Ffonts.googleapis.com%2Fcss%3Ffamily%3DArchitects%2BDaughter;" vertex="1" parent="1">
          <mxGeometry x="470" y="1189" width="120" height="60" as="geometry" />
        </mxCell>
        <mxCell id="DP9txqHSI3UWX8q9H3Ye-75" value="" style="edgeStyle=orthogonalEdgeStyle;rounded=0;sketch=1;hachureGap=4;jiggle=2;curveFitting=1;orthogonalLoop=1;jettySize=auto;html=1;fontFamily=Architects Daughter;fontSource=https%3A%2F%2Ffonts.googleapis.com%2Fcss%3Ffamily%3DArchitects%2BDaughter;" edge="1" parent="1" source="DP9txqHSI3UWX8q9H3Ye-22" target="DP9txqHSI3UWX8q9H3Ye-74">
          <mxGeometry relative="1" as="geometry" />
        </mxCell>
        <mxCell id="DP9txqHSI3UWX8q9H3Ye-22" value="HEALTH CALCULATED" style="whiteSpace=wrap;html=1;fontFamily=Architects Daughter;rounded=0;sketch=1;hachureGap=4;jiggle=2;curveFitting=1;fontSource=https%3A%2F%2Ffonts.googleapis.com%2Fcss%3Ffamily%3DArchitects%2BDaughter;" vertex="1" parent="1">
          <mxGeometry x="470" y="1340" width="120" height="60" as="geometry" />
        </mxCell>
        <mxCell id="DP9txqHSI3UWX8q9H3Ye-25" value="" style="edgeStyle=orthogonalEdgeStyle;rounded=0;sketch=1;hachureGap=4;jiggle=2;curveFitting=1;orthogonalLoop=1;jettySize=auto;html=1;fontFamily=Architects Daughter;fontSource=https%3A%2F%2Ffonts.googleapis.com%2Fcss%3Ffamily%3DArchitects%2BDaughter;" edge="1" parent="1" source="DP9txqHSI3UWX8q9H3Ye-6" target="DP9txqHSI3UWX8q9H3Ye-24">
          <mxGeometry relative="1" as="geometry">
            <mxPoint x="370" y="540" as="sourcePoint" />
            <mxPoint x="370" y="640" as="targetPoint" />
          </mxGeometry>
        </mxCell>
        <mxCell id="DP9txqHSI3UWX8q9H3Ye-28" value="" style="edgeStyle=orthogonalEdgeStyle;rounded=0;sketch=1;hachureGap=4;jiggle=2;curveFitting=1;orthogonalLoop=1;jettySize=auto;html=1;fontFamily=Architects Daughter;fontSource=https%3A%2F%2Ffonts.googleapis.com%2Fcss%3Ffamily%3DArchitects%2BDaughter;entryX=-0.212;entryY=0.488;entryDx=0;entryDy=0;entryPerimeter=0;" edge="1" parent="1" source="DP9txqHSI3UWX8q9H3Ye-30" target="DP9txqHSI3UWX8q9H3Ye-27">
          <mxGeometry relative="1" as="geometry">
            <mxPoint x="309.9969230769229" y="490.00000000000006" as="sourcePoint" />
            <mxPoint x="289.92" y="975" as="targetPoint" />
            <Array as="points">
              <mxPoint x="10" y="490" />
              <mxPoint x="10" y="1005" />
            </Array>
          </mxGeometry>
        </mxCell>
        <mxCell id="DP9txqHSI3UWX8q9H3Ye-24" value="wEAPON EQUIPPED?" style="rounded=0;whiteSpace=wrap;html=1;sketch=1;hachureGap=4;jiggle=2;curveFitting=1;fontFamily=Architects Daughter;fontSource=https%3A%2F%2Ffonts.googleapis.com%2Fcss%3Ffamily%3DArchitects%2BDaughter;" vertex="1" parent="1">
          <mxGeometry x="310" y="520" width="120" height="60" as="geometry" />
        </mxCell>
        <mxCell id="DP9txqHSI3UWX8q9H3Ye-26" value="" style="ellipse;html=1;shape=endState;fillColor=#000000;strokeColor=#ff0000;sketch=1;hachureGap=4;jiggle=2;curveFitting=1;fontFamily=Architects Daughter;fontSource=https%3A%2F%2Ffonts.googleapis.com%2Fcss%3Ffamily%3DArchitects%2BDaughter;" vertex="1" parent="1">
          <mxGeometry x="515" y="1900" width="30" height="30" as="geometry" />
        </mxCell>
        <mxCell id="DP9txqHSI3UWX8q9H3Ye-27" value="" style="shape=waypoint;sketch=1;size=6;pointerEvents=1;points=[];fillColor=default;resizable=0;rotatable=0;perimeter=centerPerimeter;snapToPoint=1;fontFamily=Architects Daughter;rounded=0;hachureGap=4;jiggle=2;curveFitting=1;fontSource=https%3A%2F%2Ffonts.googleapis.com%2Fcss%3Ffamily%3DArchitects%2BDaughter;" vertex="1" parent="1">
          <mxGeometry x="180" y="1670" width="20" height="20" as="geometry" />
        </mxCell>
        <mxCell id="DP9txqHSI3UWX8q9H3Ye-31" value="" style="edgeStyle=orthogonalEdgeStyle;rounded=0;sketch=1;hachureGap=4;jiggle=2;curveFitting=1;orthogonalLoop=1;jettySize=auto;html=1;fontFamily=Architects Daughter;fontSource=https%3A%2F%2Ffonts.googleapis.com%2Fcss%3Ffamily%3DArchitects%2BDaughter;" edge="1" parent="1" source="DP9txqHSI3UWX8q9H3Ye-33" target="DP9txqHSI3UWX8q9H3Ye-30">
          <mxGeometry relative="1" as="geometry" />
        </mxCell>
        <mxCell id="DP9txqHSI3UWX8q9H3Ye-29" value="" style="rhombus;whiteSpace=wrap;html=1;sketch=1;hachureGap=4;jiggle=2;curveFitting=1;fontFamily=Architects Daughter;fontSource=https%3A%2F%2Ffonts.googleapis.com%2Fcss%3Ffamily%3DArchitects%2BDaughter;" vertex="1" parent="1">
          <mxGeometry x="330" y="240" width="80" height="80" as="geometry" />
        </mxCell>
        <mxCell id="DP9txqHSI3UWX8q9H3Ye-30" value="" style="shape=waypoint;sketch=1;size=6;pointerEvents=1;points=[];fillColor=default;resizable=0;rotatable=0;perimeter=centerPerimeter;snapToPoint=1;fontFamily=Architects Daughter;hachureGap=4;jiggle=2;curveFitting=1;fontSource=https%3A%2F%2Ffonts.googleapis.com%2Fcss%3Ffamily%3DArchitects%2BDaughter;" vertex="1" parent="1">
          <mxGeometry y="480" width="20" height="20" as="geometry" />
        </mxCell>
        <mxCell id="DP9txqHSI3UWX8q9H3Ye-34" value="" style="edgeStyle=orthogonalEdgeStyle;rounded=0;sketch=1;hachureGap=4;jiggle=2;curveFitting=1;orthogonalLoop=1;jettySize=auto;html=1;fontFamily=Architects Daughter;fontSource=https%3A%2F%2Ffonts.googleapis.com%2Fcss%3Ffamily%3DArchitects%2BDaughter;" edge="1" parent="1" source="DP9txqHSI3UWX8q9H3Ye-29" target="DP9txqHSI3UWX8q9H3Ye-33">
          <mxGeometry relative="1" as="geometry">
            <mxPoint x="330" y="280" as="sourcePoint" />
            <mxPoint x="10" y="490" as="targetPoint" />
          </mxGeometry>
        </mxCell>
        <mxCell id="DP9txqHSI3UWX8q9H3Ye-33" value="no" style="rounded=1;whiteSpace=wrap;html=1;sketch=1;hachureGap=4;jiggle=2;curveFitting=1;fontFamily=Architects Daughter;fontSource=https%3A%2F%2Ffonts.googleapis.com%2Fcss%3Ffamily%3DArchitects%2BDaughter;" vertex="1" parent="1">
          <mxGeometry x="120" y="250" width="120" height="60" as="geometry" />
        </mxCell>
        <mxCell id="DP9txqHSI3UWX8q9H3Ye-37" value="YES" style="rounded=1;whiteSpace=wrap;html=1;sketch=1;hachureGap=4;jiggle=2;curveFitting=1;fontFamily=Architects Daughter;fontSource=https%3A%2F%2Ffonts.googleapis.com%2Fcss%3Ffamily%3DArchitects%2BDaughter;" vertex="1" parent="1">
          <mxGeometry x="310" y="380" width="120" height="60" as="geometry" />
        </mxCell>
        <mxCell id="DP9txqHSI3UWX8q9H3Ye-67" value="" style="edgeStyle=orthogonalEdgeStyle;rounded=0;sketch=1;hachureGap=4;jiggle=2;curveFitting=1;orthogonalLoop=1;jettySize=auto;html=1;fontFamily=Architects Daughter;fontSource=https%3A%2F%2Ffonts.googleapis.com%2Fcss%3Ffamily%3DArchitects%2BDaughter;" edge="1" parent="1" source="DP9txqHSI3UWX8q9H3Ye-40" target="DP9txqHSI3UWX8q9H3Ye-26">
          <mxGeometry relative="1" as="geometry" />
        </mxCell>
        <mxCell id="DP9txqHSI3UWX8q9H3Ye-40" value="PRINT&lt;div&gt;&quot;YOU CAN&#39;T ATTACK&quot;&lt;/div&gt;" style="rounded=1;whiteSpace=wrap;html=1;sketch=1;hachureGap=4;jiggle=2;curveFitting=1;fontFamily=Architects Daughter;fontSource=https%3A%2F%2Ffonts.googleapis.com%2Fcss%3Ffamily%3DArchitects%2BDaughter;" vertex="1" parent="1">
          <mxGeometry x="190" y="1650" width="120" height="60" as="geometry" />
        </mxCell>
        <mxCell id="DP9txqHSI3UWX8q9H3Ye-41" value="" style="shape=waypoint;sketch=1;size=6;pointerEvents=1;points=[];fillColor=default;resizable=0;rotatable=0;perimeter=centerPerimeter;snapToPoint=1;fontFamily=Architects Daughter;rounded=0;hachureGap=4;jiggle=2;curveFitting=1;fontSource=https%3A%2F%2Ffonts.googleapis.com%2Fcss%3Ffamily%3DArchitects%2BDaughter;" vertex="1" parent="1">
          <mxGeometry y="670" width="20" height="20" as="geometry" />
        </mxCell>
        <mxCell id="DP9txqHSI3UWX8q9H3Ye-44" value="" style="edgeStyle=orthogonalEdgeStyle;rounded=0;sketch=1;hachureGap=4;jiggle=2;curveFitting=1;orthogonalLoop=1;jettySize=auto;html=1;fontFamily=Architects Daughter;fontSource=https%3A%2F%2Ffonts.googleapis.com%2Fcss%3Ffamily%3DArchitects%2BDaughter;" edge="1" parent="1" source="DP9txqHSI3UWX8q9H3Ye-17" target="DP9txqHSI3UWX8q9H3Ye-43">
          <mxGeometry relative="1" as="geometry">
            <mxPoint x="530" y="710" as="sourcePoint" />
            <mxPoint x="530" y="930" as="targetPoint" />
          </mxGeometry>
        </mxCell>
        <mxCell id="DP9txqHSI3UWX8q9H3Ye-50" value="" style="edgeStyle=orthogonalEdgeStyle;rounded=0;sketch=1;hachureGap=4;jiggle=2;curveFitting=1;orthogonalLoop=1;jettySize=auto;html=1;fontFamily=Architects Daughter;fontSource=https%3A%2F%2Ffonts.googleapis.com%2Fcss%3Ffamily%3DArchitects%2BDaughter;" edge="1" parent="1" source="DP9txqHSI3UWX8q9H3Ye-43" target="DP9txqHSI3UWX8q9H3Ye-45">
          <mxGeometry relative="1" as="geometry" />
        </mxCell>
        <mxCell id="DP9txqHSI3UWX8q9H3Ye-43" value="MEELEE/RANGED?" style="rounded=0;whiteSpace=wrap;html=1;sketch=1;hachureGap=4;jiggle=2;curveFitting=1;fontFamily=Architects Daughter;fontSource=https%3A%2F%2Ffonts.googleapis.com%2Fcss%3Ffamily%3DArchitects%2BDaughter;" vertex="1" parent="1">
          <mxGeometry x="470" y="760" width="120" height="60" as="geometry" />
        </mxCell>
        <mxCell id="DP9txqHSI3UWX8q9H3Ye-47" value="" style="edgeStyle=orthogonalEdgeStyle;rounded=0;sketch=1;hachureGap=4;jiggle=2;curveFitting=1;orthogonalLoop=1;jettySize=auto;html=1;fontFamily=Architects Daughter;fontSource=https%3A%2F%2Ffonts.googleapis.com%2Fcss%3Ffamily%3DArchitects%2BDaughter;" edge="1" parent="1" source="DP9txqHSI3UWX8q9H3Ye-45" target="DP9txqHSI3UWX8q9H3Ye-46">
          <mxGeometry relative="1" as="geometry" />
        </mxCell>
        <mxCell id="DP9txqHSI3UWX8q9H3Ye-49" value="" style="edgeStyle=orthogonalEdgeStyle;rounded=0;sketch=1;hachureGap=4;jiggle=2;curveFitting=1;orthogonalLoop=1;jettySize=auto;html=1;fontFamily=Architects Daughter;fontSource=https%3A%2F%2Ffonts.googleapis.com%2Fcss%3Ffamily%3DArchitects%2BDaughter;" edge="1" parent="1" source="DP9txqHSI3UWX8q9H3Ye-45" target="DP9txqHSI3UWX8q9H3Ye-48">
          <mxGeometry relative="1" as="geometry" />
        </mxCell>
        <mxCell id="DP9txqHSI3UWX8q9H3Ye-45" value="" style="rhombus;whiteSpace=wrap;html=1;sketch=1;hachureGap=4;jiggle=2;curveFitting=1;fontFamily=Architects Daughter;fontSource=https%3A%2F%2Ffonts.googleapis.com%2Fcss%3Ffamily%3DArchitects%2BDaughter;" vertex="1" parent="1">
          <mxGeometry x="490" y="880" width="80" height="80" as="geometry" />
        </mxCell>
        <mxCell id="DP9txqHSI3UWX8q9H3Ye-71" value="" style="edgeStyle=orthogonalEdgeStyle;rounded=0;sketch=1;hachureGap=4;jiggle=2;curveFitting=1;orthogonalLoop=1;jettySize=auto;html=1;fontFamily=Architects Daughter;fontSource=https%3A%2F%2Ffonts.googleapis.com%2Fcss%3Ffamily%3DArchitects%2BDaughter;" edge="1" parent="1" source="DP9txqHSI3UWX8q9H3Ye-46" target="DP9txqHSI3UWX8q9H3Ye-70">
          <mxGeometry relative="1" as="geometry" />
        </mxCell>
        <mxCell id="DP9txqHSI3UWX8q9H3Ye-46" value="MELLEE" style="whiteSpace=wrap;html=1;fontFamily=Architects Daughter;sketch=1;hachureGap=4;jiggle=2;curveFitting=1;fontSource=https%3A%2F%2Ffonts.googleapis.com%2Fcss%3Ffamily%3DArchitects%2BDaughter;" vertex="1" parent="1">
          <mxGeometry x="470" y="1030" width="120" height="60" as="geometry" />
        </mxCell>
        <mxCell id="DP9txqHSI3UWX8q9H3Ye-54" value="" style="edgeStyle=orthogonalEdgeStyle;rounded=0;sketch=1;hachureGap=4;jiggle=2;curveFitting=1;orthogonalLoop=1;jettySize=auto;html=1;fontFamily=Architects Daughter;fontSource=https%3A%2F%2Ffonts.googleapis.com%2Fcss%3Ffamily%3DArchitects%2BDaughter;" edge="1" parent="1" source="DP9txqHSI3UWX8q9H3Ye-48" target="DP9txqHSI3UWX8q9H3Ye-53">
          <mxGeometry relative="1" as="geometry" />
        </mxCell>
        <mxCell id="DP9txqHSI3UWX8q9H3Ye-55" value="" style="edgeStyle=orthogonalEdgeStyle;rounded=0;sketch=1;hachureGap=4;jiggle=2;curveFitting=1;orthogonalLoop=1;jettySize=auto;html=1;fontFamily=Architects Daughter;fontSource=https%3A%2F%2Ffonts.googleapis.com%2Fcss%3Ffamily%3DArchitects%2BDaughter;" edge="1" parent="1" source="DP9txqHSI3UWX8q9H3Ye-48" target="DP9txqHSI3UWX8q9H3Ye-53">
          <mxGeometry relative="1" as="geometry" />
        </mxCell>
        <mxCell id="DP9txqHSI3UWX8q9H3Ye-48" value="RANGED" style="whiteSpace=wrap;html=1;fontFamily=Architects Daughter;sketch=1;hachureGap=4;jiggle=2;curveFitting=1;fontSource=https%3A%2F%2Ffonts.googleapis.com%2Fcss%3Ffamily%3DArchitects%2BDaughter;" vertex="1" parent="1">
          <mxGeometry x="800" y="890" width="120" height="60" as="geometry" />
        </mxCell>
        <mxCell id="DP9txqHSI3UWX8q9H3Ye-53" value="" style="shape=waypoint;sketch=1;size=6;pointerEvents=1;points=[];fillColor=default;resizable=0;rotatable=0;perimeter=centerPerimeter;snapToPoint=1;fontFamily=Architects Daughter;hachureGap=4;jiggle=2;curveFitting=1;fontSource=https%3A%2F%2Ffonts.googleapis.com%2Fcss%3Ffamily%3DArchitects%2BDaughter;" vertex="1" parent="1">
          <mxGeometry x="850" y="1050" width="20" height="20" as="geometry" />
        </mxCell>
        <mxCell id="DP9txqHSI3UWX8q9H3Ye-58" value="" style="edgeStyle=orthogonalEdgeStyle;rounded=0;sketch=1;hachureGap=4;jiggle=2;curveFitting=1;orthogonalLoop=1;jettySize=auto;html=1;fontFamily=Architects Daughter;fontSource=https%3A%2F%2Ffonts.googleapis.com%2Fcss%3Ffamily%3DArchitects%2BDaughter;" edge="1" parent="1" source="DP9txqHSI3UWX8q9H3Ye-56" target="DP9txqHSI3UWX8q9H3Ye-57">
          <mxGeometry relative="1" as="geometry" />
        </mxCell>
        <mxCell id="DP9txqHSI3UWX8q9H3Ye-56" value="HAS AMMO?" style="rounded=0;whiteSpace=wrap;html=1;sketch=1;hachureGap=4;jiggle=2;curveFitting=1;fontFamily=Architects Daughter;fontSource=https%3A%2F%2Ffonts.googleapis.com%2Fcss%3Ffamily%3DArchitects%2BDaughter;" vertex="1" parent="1">
          <mxGeometry x="800" y="1060" width="120" height="60" as="geometry" />
        </mxCell>
        <mxCell id="DP9txqHSI3UWX8q9H3Ye-60" value="" style="edgeStyle=orthogonalEdgeStyle;rounded=0;sketch=1;hachureGap=4;jiggle=2;curveFitting=1;orthogonalLoop=1;jettySize=auto;html=1;fontFamily=Architects Daughter;fontSource=https%3A%2F%2Ffonts.googleapis.com%2Fcss%3Ffamily%3DArchitects%2BDaughter;" edge="1" parent="1" source="DP9txqHSI3UWX8q9H3Ye-57" target="DP9txqHSI3UWX8q9H3Ye-59">
          <mxGeometry relative="1" as="geometry" />
        </mxCell>
        <mxCell id="DP9txqHSI3UWX8q9H3Ye-62" value="" style="edgeStyle=orthogonalEdgeStyle;rounded=0;sketch=1;hachureGap=4;jiggle=2;curveFitting=1;orthogonalLoop=1;jettySize=auto;html=1;fontFamily=Architects Daughter;fontSource=https%3A%2F%2Ffonts.googleapis.com%2Fcss%3Ffamily%3DArchitects%2BDaughter;" edge="1" parent="1" source="DP9txqHSI3UWX8q9H3Ye-57" target="DP9txqHSI3UWX8q9H3Ye-61">
          <mxGeometry relative="1" as="geometry" />
        </mxCell>
        <mxCell id="DP9txqHSI3UWX8q9H3Ye-57" value="" style="rhombus;whiteSpace=wrap;html=1;fontFamily=Architects Daughter;rounded=0;sketch=1;hachureGap=4;jiggle=2;curveFitting=1;fontSource=https%3A%2F%2Ffonts.googleapis.com%2Fcss%3Ffamily%3DArchitects%2BDaughter;" vertex="1" parent="1">
          <mxGeometry x="820" y="1190" width="80" height="80" as="geometry" />
        </mxCell>
        <mxCell id="DP9txqHSI3UWX8q9H3Ye-73" value="" style="edgeStyle=orthogonalEdgeStyle;rounded=0;sketch=1;hachureGap=4;jiggle=2;curveFitting=1;orthogonalLoop=1;jettySize=auto;html=1;fontFamily=Architects Daughter;fontSource=https%3A%2F%2Ffonts.googleapis.com%2Fcss%3Ffamily%3DArchitects%2BDaughter;" edge="1" parent="1" source="DP9txqHSI3UWX8q9H3Ye-59" target="DP9txqHSI3UWX8q9H3Ye-72">
          <mxGeometry relative="1" as="geometry" />
        </mxCell>
        <mxCell id="DP9txqHSI3UWX8q9H3Ye-59" value="YES" style="whiteSpace=wrap;html=1;fontFamily=Architects Daughter;rounded=0;sketch=1;hachureGap=4;jiggle=2;curveFitting=1;fontSource=https%3A%2F%2Ffonts.googleapis.com%2Fcss%3Ffamily%3DArchitects%2BDaughter;" vertex="1" parent="1">
          <mxGeometry x="640" y="1200" width="120" height="60" as="geometry" />
        </mxCell>
        <mxCell id="DP9txqHSI3UWX8q9H3Ye-66" value="" style="edgeStyle=orthogonalEdgeStyle;rounded=0;sketch=1;hachureGap=4;jiggle=2;curveFitting=1;orthogonalLoop=1;jettySize=auto;html=1;fontFamily=Architects Daughter;fontSource=https%3A%2F%2Ffonts.googleapis.com%2Fcss%3Ffamily%3DArchitects%2BDaughter;" edge="1" parent="1" source="DP9txqHSI3UWX8q9H3Ye-61" target="DP9txqHSI3UWX8q9H3Ye-65">
          <mxGeometry relative="1" as="geometry" />
        </mxCell>
        <mxCell id="DP9txqHSI3UWX8q9H3Ye-61" value="NO" style="whiteSpace=wrap;html=1;fontFamily=Architects Daughter;rounded=0;sketch=1;hachureGap=4;jiggle=2;curveFitting=1;fontSource=https%3A%2F%2Ffonts.googleapis.com%2Fcss%3Ffamily%3DArchitects%2BDaughter;" vertex="1" parent="1">
          <mxGeometry x="800" y="1320" width="120" height="60" as="geometry" />
        </mxCell>
        <mxCell id="DP9txqHSI3UWX8q9H3Ye-69" value="" style="edgeStyle=orthogonalEdgeStyle;rounded=0;sketch=1;hachureGap=4;jiggle=2;curveFitting=1;orthogonalLoop=1;jettySize=auto;html=1;fontFamily=Architects Daughter;fontSource=https%3A%2F%2Ffonts.googleapis.com%2Fcss%3Ffamily%3DArchitects%2BDaughter;" edge="1" parent="1" source="DP9txqHSI3UWX8q9H3Ye-74" target="DP9txqHSI3UWX8q9H3Ye-68">
          <mxGeometry relative="1" as="geometry">
            <Array as="points">
              <mxPoint x="860" y="1680" />
              <mxPoint x="515" y="1680" />
            </Array>
          </mxGeometry>
        </mxCell>
        <mxCell id="DP9txqHSI3UWX8q9H3Ye-78" value="" style="edgeStyle=orthogonalEdgeStyle;rounded=0;sketch=1;hachureGap=4;jiggle=2;curveFitting=1;orthogonalLoop=1;jettySize=auto;html=1;fontFamily=Architects Daughter;fontSource=https%3A%2F%2Ffonts.googleapis.com%2Fcss%3Ffamily%3DArchitects%2BDaughter;" edge="1" parent="1" source="DP9txqHSI3UWX8q9H3Ye-65" target="DP9txqHSI3UWX8q9H3Ye-77">
          <mxGeometry relative="1" as="geometry" />
        </mxCell>
        <mxCell id="DP9txqHSI3UWX8q9H3Ye-65" value="PRINT&lt;div&gt;&quot;OUT OF AMMO#&lt;/div&gt;" style="rounded=1;whiteSpace=wrap;html=1;sketch=1;hachureGap=4;jiggle=2;curveFitting=1;fontFamily=Architects Daughter;fontSource=https%3A%2F%2Ffonts.googleapis.com%2Fcss%3Ffamily%3DArchitects%2BDaughter;" vertex="1" parent="1">
          <mxGeometry x="800" y="1450" width="120" height="60" as="geometry" />
        </mxCell>
        <mxCell id="DP9txqHSI3UWX8q9H3Ye-68" value="" style="shape=waypoint;sketch=1;size=6;pointerEvents=1;points=[];fillColor=default;resizable=0;rotatable=0;perimeter=centerPerimeter;snapToPoint=1;fontFamily=Architects Daughter;rounded=1;hachureGap=4;jiggle=2;curveFitting=1;fontSource=https%3A%2F%2Ffonts.googleapis.com%2Fcss%3Ffamily%3DArchitects%2BDaughter;" vertex="1" parent="1">
          <mxGeometry x="520" y="1890" width="20" height="20" as="geometry" />
        </mxCell>
        <mxCell id="DP9txqHSI3UWX8q9H3Ye-70" value="" style="shape=waypoint;sketch=1;size=6;pointerEvents=1;points=[];fillColor=default;resizable=0;rotatable=0;perimeter=centerPerimeter;snapToPoint=1;fontFamily=Architects Daughter;hachureGap=4;jiggle=2;curveFitting=1;fontSource=https%3A%2F%2Ffonts.googleapis.com%2Fcss%3Ffamily%3DArchitects%2BDaughter;" vertex="1" parent="1">
          <mxGeometry x="520" y="1169" width="20" height="20" as="geometry" />
        </mxCell>
        <mxCell id="DP9txqHSI3UWX8q9H3Ye-72" value="" style="shape=waypoint;sketch=1;size=6;pointerEvents=1;points=[];fillColor=default;resizable=0;rotatable=0;perimeter=centerPerimeter;snapToPoint=1;fontFamily=Architects Daughter;rounded=0;hachureGap=4;jiggle=2;curveFitting=1;fontSource=https%3A%2F%2Ffonts.googleapis.com%2Fcss%3Ffamily%3DArchitects%2BDaughter;" vertex="1" parent="1">
          <mxGeometry x="580" y="1219" width="20" height="20" as="geometry" />
        </mxCell>
        <mxCell id="DP9txqHSI3UWX8q9H3Ye-76" value="" style="edgeStyle=orthogonalEdgeStyle;rounded=0;sketch=1;hachureGap=4;jiggle=2;curveFitting=1;orthogonalLoop=1;jettySize=auto;html=1;fontFamily=Architects Daughter;fontSource=https%3A%2F%2Ffonts.googleapis.com%2Fcss%3Ffamily%3DArchitects%2BDaughter;" edge="1" parent="1" source="DP9txqHSI3UWX8q9H3Ye-65" target="DP9txqHSI3UWX8q9H3Ye-74">
          <mxGeometry relative="1" as="geometry">
            <mxPoint x="860" y="1510" as="sourcePoint" />
            <mxPoint x="515" y="1900" as="targetPoint" />
            <Array as="points" />
          </mxGeometry>
        </mxCell>
        <mxCell id="DP9txqHSI3UWX8q9H3Ye-74" value="" style="shape=waypoint;sketch=1;size=6;pointerEvents=1;points=[];fillColor=default;resizable=0;rotatable=0;perimeter=centerPerimeter;snapToPoint=1;fontFamily=Architects Daughter;rounded=0;hachureGap=4;jiggle=2;curveFitting=1;fontSource=https%3A%2F%2Ffonts.googleapis.com%2Fcss%3Ffamily%3DArchitects%2BDaughter;" vertex="1" parent="1">
          <mxGeometry x="520" y="1670" width="20" height="20" as="geometry" />
        </mxCell>
        <mxCell id="DP9txqHSI3UWX8q9H3Ye-77" value="" style="shape=waypoint;sketch=1;size=6;pointerEvents=1;points=[];fillColor=default;resizable=0;rotatable=0;perimeter=centerPerimeter;snapToPoint=1;fontFamily=Architects Daughter;rounded=1;hachureGap=4;jiggle=2;curveFitting=1;fontSource=https%3A%2F%2Ffonts.googleapis.com%2Fcss%3Ffamily%3DArchitects%2BDaughter;" vertex="1" parent="1">
          <mxGeometry x="850" y="1660" width="20" height="20" as="geometry" />
        </mxCell>
      </root>
    </mxGraphModel>
  </diagram>
</mxfile>
